<?xml version="1.0" encoding="UTF-8"?>
<!DOCTYPE svg PUBLIC "-//W3C//DTD SVG 1.1//EN" "http://www.w3.org/Graphics/SVG/1.1/DTD/svg11.dtd">
<!-- Creator: CorelDRAW 2020 (64 Bit) -->
<svg xmlns="http://www.w3.org/2000/svg" xml:space="preserve" width="43.4722mm" height="43.4722mm" version="1.1" style="shape-rendering:geometricPrecision; text-rendering:geometricPrecision; image-rendering:optimizeQuality; fill-rule:evenodd; clip-rule:evenodd"
viewBox="0 0 139.41 139.41"
 xmlns:xlink="http://www.w3.org/1999/xlink"
 xmlns:xodm="http://www.corel.com/coreldraw/odm/2003">
 <defs>
  <style type="text/css">
   <![CDATA[
    .fil1 {fill:black}
    .fil0 {fill:black}
   ]]>
  </style>
 </defs>
 <g id="Camada_x0020_1">
  <metadata id="CorelCorpID_0Corel-Layer"/>
  <g id="_2433104175120">
   <g>
    <path class="fil0" d="M130.39 69.52c0,12.93 -8.42,23.89 -20.08,27.7 2.13,-1.04 4.18,-2.36 6.11,-3.96 11.82,-9.82 12.28,-27.72 5.28,-37.13 -7,-9.41 -22.41,-11.13 -33.83,-4.19 -1.27,0.77 -2.51,1.65 -3.7,2.64 -1.28,1.07 -2.46,2.21 -3.52,3.43 0.09,-0.82 0.13,-1.65 0.13,-2.5 0,-2.05 -0.26,-4.05 -0.76,-5.95 -2.64,-10.14 -11.59,-19.08 -22.81,-17.62 -22.71,2.96 -26.21,27.43 -19.15,44.53 9.21,22.3 30.66,44.83 44.54,51.67 -23.68,-8.81 -51.09,-34.99 -56.07,-63.14 -8.61,-48.72 52.59,-56.34 59.96,-20.61 23.1,-11.09 43.88,2.41 43.88,25.13z"/>
    <path class="fil0" d="M84.45 124.86c-22.61,-19.05 -36.56,-39 -38.43,-74.48 2.45,27.5 16.25,46.86 38.43,74.48z"/>
    <path class="fil0" d="M23.19 37.14c-17.41,22.01 0.18,50.27 14.66,69.18 -17,-14.13 -40.46,-47.33 -14.66,-69.18z"/>
   </g>
   <path class="fil0" d="M69.7 0c38.5,0 69.7,31.21 69.7,69.7 0,38.5 -31.21,69.7 -69.7,69.7 -38.5,0 -69.7,-31.21 -69.7,-69.7 0,-38.5 31.21,-69.7 69.7,-69.7zm0 4.97c35.75,0 64.73,28.98 64.73,64.73 0,35.75 -28.98,64.73 -64.73,64.73 -35.75,0 -64.73,-28.98 -64.73,-64.73 0,-35.75 28.98,-64.73 64.73,-64.73z"/>
   <g>
    <path class="fil1" d="M69.35 88.76c0,-0.12 0.18,-0.82 0.18,-0.93l-2.44 0c-0.06,0 -0.07,0.14 -0.09,0.25 -0.02,0.1 -0.04,0.2 -0.06,0.28 -0.1,0.51 -0.26,1.21 -0.34,1.7 -0.07,0.38 -0.15,0.76 -0.22,1.13 -0.08,0.38 -0.15,0.75 -0.23,1.13l-0.84 4.25c-0.03,0.14 -0.08,0.26 -0.01,0.26l2.54 0c0.06,0 0.06,-0.11 0.08,-0.23 0.09,-0.53 0.26,-1.31 0.36,-1.84l0.31 -1.57c0.22,-1.09 0.36,-2.39 1.43,-2.97 0.64,-0.34 1.76,-0.43 2.27,0.18 0.07,0.08 0.14,0.21 0.18,0.31 0.23,0.65 0.01,1.42 -0.13,2.09l-0.53 2.67c-0.02,0.12 -0.26,1.25 -0.26,1.35l2.61 0 0.2 -1.04c0.16,-0.8 0.69,-3.64 0.85,-4.14 0.1,-0.3 0.24,-0.62 0.41,-0.84 0.38,-0.51 0.98,-0.85 1.66,-0.85 0.49,0 0.81,0.01 1.2,0.34 0.08,0.07 0.21,0.27 0.25,0.38 0.19,0.48 0.11,0.97 0.01,1.44l-0.67 3.36c-0.04,0.22 -0.09,0.44 -0.13,0.66 -0.04,0.22 -0.08,0.46 -0.13,0.68l2.61 0c0.1,-0.45 0.21,-1.04 0.3,-1.51l0.6 -3.03c0.25,-1.23 0.44,-2.27 -0.31,-3.38 -0.05,-0.08 -0.11,-0.15 -0.17,-0.21 -0.04,-0.04 -0.05,-0.06 -0.09,-0.1 -0.16,-0.16 -0.35,-0.31 -0.55,-0.43 -0.87,-0.52 -2.01,-0.54 -2.98,-0.35 -0.31,0.06 -0.66,0.18 -0.92,0.31 -0.32,0.15 -0.84,0.47 -1.1,0.73 -0.08,0.08 -0.23,0.25 -0.31,0.31 -0.13,-0.25 -0.31,-0.48 -0.52,-0.66 -0.03,-0.02 -0.04,-0.04 -0.07,-0.07 -0.41,-0.39 -1.11,-0.63 -1.68,-0.7 -0.47,-0.06 -0.92,-0.04 -1.37,0.06 -0.53,0.11 -0.79,0.23 -1.23,0.46 -0.35,0.18 -0.58,0.43 -0.71,0.52z"/>
    <path class="fil1" d="M81.96 92.89c0,0.92 0.18,1.69 0.64,2.38 0.03,0.05 0.06,0.09 0.09,0.14 0.04,0.05 0.07,0.09 0.11,0.14 0.71,0.9 1.85,1.41 3.03,1.41 0.6,0 1.16,-0.11 1.59,-0.28 0.16,-0.06 0.32,-0.14 0.47,-0.22 0.05,-0.03 0.09,-0.06 0.15,-0.09l0.41 -0.3c0.03,-0.03 0.04,-0.03 0.07,-0.05 0.03,-0.03 0.03,-0.03 0.06,-0.05 0,0.1 -0.15,0.73 -0.16,0.87l2.48 0 1.79 -9 -2.61 0 -0.24 1.2 -0.28 -0.37c-0.1,-0.11 -0.23,-0.22 -0.35,-0.31 -0.19,-0.15 -0.28,-0.19 -0.5,-0.3 -0.48,-0.24 -1.21,-0.35 -1.77,-0.35 -0.5,0 -1.19,0.1 -1.63,0.27 -0.36,0.14 -0.51,0.19 -0.87,0.4 -0.21,0.12 -0.38,0.23 -0.56,0.38 -0.03,0.02 -0.06,0.05 -0.09,0.07 -0.03,0.03 -0.06,0.04 -0.09,0.07 -0.12,0.1 -0.21,0.2 -0.32,0.31 -0.42,0.41 -0.77,1.01 -1,1.54 -0.03,0.07 -0.06,0.15 -0.09,0.22 -0.21,0.57 -0.33,1.28 -0.33,1.92zm4.68 1.91c0.51,0 0.97,-0.13 1.36,-0.38 0.4,-0.25 0.71,-0.6 0.94,-1.04 0.23,-0.44 0.34,-0.95 0.34,-1.55 0,-0.61 -0.18,-1.1 -0.54,-1.45 -0.36,-0.36 -0.87,-0.53 -1.51,-0.53 -0.5,0 -0.95,0.13 -1.35,0.38 -0.4,0.25 -0.72,0.6 -0.94,1.04 -0.23,0.44 -0.34,0.95 -0.34,1.55 0,0.61 0.18,1.1 0.54,1.45 0.36,0.36 0.87,0.53 1.51,0.53z"/>
    <path class="fil1" d="M100.89 96.97c1.37,0 2.45,-0.35 3.46,-1.1 0.24,-0.18 0.49,-0.41 0.69,-0.63l0.15 -0.18c0.69,-0.79 1.15,-2.06 1.15,-3.11 0,-0.32 0.01,-0.6 -0.04,-0.9 -0.14,-0.83 -0.43,-1.49 -1.03,-2.09 -0.66,-0.66 -1.56,-1.06 -2.48,-1.18 -0.88,-0.12 -1.69,-0.09 -2.56,0.13 -0.26,0.06 -0.65,0.2 -0.88,0.32 -0.41,0.21 -0.85,0.45 -1.2,0.76 -0.68,0.6 -1.09,1.17 -1.43,2.02 -0.16,0.39 -0.24,0.77 -0.3,1.21 -0.01,0.1 -0.01,0.17 -0.03,0.27 -0.04,0.27 -0.02,0.85 0.03,1.13 0.08,0.49 0.21,0.94 0.45,1.35 0.31,0.52 0.66,0.9 1.17,1.24 0.22,0.15 0.55,0.32 0.8,0.41 0.58,0.22 1.25,0.36 2.05,0.36zm0.19 -2.15c0.51,0 0.97,-0.13 1.36,-0.38 0.4,-0.25 0.7,-0.6 0.93,-1.04 0.22,-0.45 0.33,-0.96 0.33,-1.55 0,-0.6 -0.18,-1.09 -0.53,-1.45 -0.36,-0.37 -0.86,-0.55 -1.5,-0.55 -0.51,0 -0.97,0.13 -1.36,0.38 -0.4,0.25 -0.71,0.6 -0.94,1.04 -0.23,0.45 -0.34,0.96 -0.34,1.55 0,0.61 0.18,1.1 0.53,1.46 0.36,0.36 0.86,0.54 1.52,0.54z"/>
    <path class="fil1" d="M110.16 88.86c0,-0.08 0.03,-0.18 0.04,-0.25 0.03,-0.13 0.15,-0.7 0.15,-0.78l-2.47 0c-0.04,0.08 -1.46,7.32 -1.53,7.65 -0.09,0.43 -0.17,0.85 -0.26,1.28 -0.02,0.1 -0.01,0.07 0.28,0.07l2.29 0c0.06,-0.01 0.05,-0.06 0.06,-0.13l0.29 -1.44c0.17,-0.86 0.34,-1.7 0.51,-2.56 0.13,-0.64 0.26,-1.17 0.64,-1.67 0.1,-0.14 0.24,-0.29 0.38,-0.39 0.51,-0.37 1.09,-0.56 1.74,-0.56 0.13,0 0.26,0 0.38,-0l0.35 0.03 0.12 -0.6c0.04,-0.21 0.08,-0.39 0.12,-0.61l0.23 -1.21c-0.21,0 -0.58,0.03 -0.8,0.04 -0.32,0.02 -0.85,0.15 -1.15,0.25 -0.49,0.16 -0.79,0.35 -1.16,0.66 -0.07,0.06 -0.15,0.17 -0.23,0.22z"/>
    <path class="fil1" d="M71.21 85.46c0,0.15 -0.11,0.49 -0.12,0.63l0.94 0c0.14,-0.58 0.28,-1.41 0.4,-2.03l0.67 -3.4 -0.99 0 -0.18 0.9c-0.15,-0.17 -0.13,-0.27 -0.49,-0.54 -0.29,-0.22 -0.77,-0.39 -1.15,-0.4 -0.38,-0.01 -0.54,-0.04 -0.96,0.05 -1.19,0.24 -2.05,1.1 -2.35,2.3 -0.13,0.54 -0.14,1.28 0.08,1.81 0.18,0.46 0.54,0.86 0.98,1.09 0.88,0.45 2.05,0.38 2.86,-0.18l0.29 -0.23zm-1.68 -0.17c0.41,0 0.78,-0.1 1.1,-0.3 0.32,-0.2 0.57,-0.47 0.75,-0.81 0.18,-0.34 0.27,-0.74 0.27,-1.18 0,-0.48 -0.14,-0.85 -0.42,-1.12 -0.28,-0.27 -0.68,-0.4 -1.2,-0.4 -0.4,0 -0.77,0.1 -1.09,0.29 -0.32,0.19 -0.57,0.46 -0.76,0.81 -0.18,0.35 -0.28,0.74 -0.28,1.19 0,0.47 0.14,0.84 0.42,1.12 0.28,0.27 0.68,0.41 1.2,0.41z"/>
    <path class="fil1" d="M83.53 83.68c0,0.46 0.03,0.79 0.23,1.19 0.07,0.14 0.13,0.23 0.22,0.35 0.17,0.23 0.37,0.4 0.62,0.55 0.13,0.08 0.25,0.13 0.4,0.19 0.34,0.14 0.73,0.18 1.15,0.18 1.22,0 2.18,-0.64 2.7,-1.55 0.5,-0.87 0.62,-2.23 -0.03,-3.1 -0.44,-0.58 -1.18,-0.87 -1.94,-0.9l-0.34 0c-0.41,0.02 -0.81,0.11 -1.15,0.26 -0.58,0.26 -1.04,0.64 -1.36,1.16 -0.3,0.47 -0.49,1.03 -0.49,1.66zm2.61 1.6c0.41,0 0.78,-0.1 1.1,-0.3 0.32,-0.2 0.57,-0.47 0.75,-0.81 0.18,-0.34 0.27,-0.74 0.27,-1.18 0,-0.48 -0.14,-0.85 -0.42,-1.12 -0.28,-0.27 -0.68,-0.4 -1.2,-0.4 -0.4,0 -0.77,0.1 -1.09,0.29 -0.32,0.19 -0.57,0.46 -0.76,0.81 -0.18,0.35 -0.28,0.74 -0.28,1.19 0,0.47 0.14,0.84 0.42,1.12 0.28,0.27 0.68,0.41 1.2,0.41z"/>
    <path class="fil1" d="M92.26 96.84l2.55 0c0.05,0 0.05,-0.06 0.06,-0.1 0.01,-0.05 0.01,-0.08 0.03,-0.14l1.63 -8.19c0.03,-0.13 0.1,-0.48 0.1,-0.57l-2.55 0c-0.06,0 -0.05,0.06 -0.06,0.11 -0.01,0.05 -0.02,0.08 -0.03,0.14l-0.84 4.24c-0.01,0.07 -0.89,4.39 -0.89,4.53z"/>
    <path class="fil1" d="M75.21 81.31c0.01,-0.09 0.04,-0.22 0.06,-0.32 0.01,-0.08 0.06,-0.25 0.06,-0.33l-0.94 0 -0.54 2.71c-0.09,0.45 -0.18,0.9 -0.27,1.36 -0.08,0.42 -0.18,0.97 -0.27,1.36l0.99 0c0.03,-0.06 0.13,-0.62 0.15,-0.73 0.05,-0.25 0.1,-0.48 0.15,-0.74l0.3 -1.48c0.06,-0.26 0.12,-0.44 0.22,-0.66 0.02,-0.04 0.02,-0.04 0.04,-0.07l0.13 -0.21c0.42,-0.6 1.27,-0.84 1.97,-0.66 0.29,0.08 0.48,0.21 0.61,0.47 0.23,0.47 0.06,1.08 -0.03,1.56l-0.34 1.67c-0.03,0.15 -0.06,0.27 -0.09,0.42 -0.02,0.08 -0.03,0.13 -0.04,0.21 -0.01,0.07 -0.04,0.15 -0.04,0.23l0.99 0c0,-0.06 0.02,-0.13 0.03,-0.19l0.26 -1.29c0.1,-0.49 0.2,-0.98 0.3,-1.47 0.12,-0.59 0.38,-1.07 0.84,-1.37 0.09,-0.06 0.19,-0.11 0.29,-0.15 0.47,-0.18 1.19,-0.21 1.6,0.1 0.53,0.4 0.31,1.24 0.2,1.79l-0.47 2.35c-0.01,0.07 -0.04,0.15 -0.04,0.23l0.99 0 0.54 -2.74c0.13,-0.63 0.24,-1.13 -0.01,-1.75 -0.18,-0.44 -0.54,-0.73 -0.98,-0.88 -0.24,-0.08 -0.53,-0.12 -0.82,-0.12l-0.06 0c-0.46,0 -0.94,0.1 -1.28,0.28 -0.42,0.21 -0.39,0.23 -0.71,0.48 -0.11,0.09 -0.12,0.17 -0.2,0.19 -0.05,-0.22 -0.4,-0.57 -0.62,-0.69 -0.87,-0.46 -2.23,-0.27 -2.89,0.38 -0.03,0.03 -0.05,0.05 -0.08,0.08z"/>
    <path class="fil1" d="M94.25 85.22c0,0.8 0.66,1.37 1.46,1.37 0.53,0 0.91,-0.09 1.25,-0.37 0.64,-0.52 0.77,-1.53 0.21,-2.09 -0.27,-0.27 -0.65,-0.45 -1.06,-0.45l-0.25 0c-0.88,0 -1.61,0.68 -1.61,1.54z"/>
    <path class="fil1" d="M91.33 81.43l0.11 -0.57c0.01,-0.07 0.03,-0.14 0.04,-0.2l-0.96 0c0,0.09 -0.04,0.25 -0.06,0.34 -0.02,0.11 -0.04,0.23 -0.07,0.35l-0.4 2.03c-0.09,0.45 -0.18,0.9 -0.27,1.36l-0.26 1.36 0.99 0 0.31 -1.54c0.08,-0.39 0.22,-1.19 0.32,-1.53 0.06,-0.22 0.16,-0.46 0.28,-0.63 0.06,-0.08 0.12,-0.19 0.2,-0.26 0.24,-0.25 0.52,-0.42 0.88,-0.51 0.37,-0.09 0.49,-0.06 0.87,-0.06 0.01,-0.15 0.18,-0.85 0.18,-0.96 -0.47,0 -0.94,0.07 -1.27,0.2 -0.25,0.1 -0.39,0.17 -0.58,0.34l-0.2 0.19c-0.04,0.04 -0.04,0.07 -0.09,0.1z"/>
   </g>
  </g>
 </g>
</svg>
