<?xml version="1.0" encoding="UTF-8"?>
<!DOCTYPE svg PUBLIC "-//W3C//DTD SVG 1.1//EN" "http://www.w3.org/Graphics/SVG/1.1/DTD/svg11.dtd">
<!-- Creator: CorelDRAW 2020 (64 Bit) -->
<svg xmlns="http://www.w3.org/2000/svg" xml:space="preserve" width="39.0255mm" height="39.0255mm" version="1.1" style="shape-rendering:geometricPrecision; text-rendering:geometricPrecision; image-rendering:optimizeQuality; fill-rule:evenodd; clip-rule:evenodd"
viewBox="0 0 123.96 123.96"
 xmlns:xlink="http://www.w3.org/1999/xlink"
 xmlns:xodm="http://www.corel.com/coreldraw/odm/2003">
 <defs>
  <style type="text/css">
   <![CDATA[
    .fil0 {fill:white}
   ]]>
  </style>
 </defs>
 <g id="Camada_x0020_1">
  <metadata id="CorelCorpID_0Corel-Layer"/>
  <path class="fil0" d="M61.98 0c34.23,0 61.98,27.75 61.98,61.98 0,34.23 -27.75,61.98 -61.98,61.98 -34.23,0 -61.98,-27.75 -61.98,-61.98 0,-2.21 0.12,-4.39 0.34,-6.54 5.67,15.71 14.7,29.11 28.32,40.42 -15.13,-19.77 -33.51,-49.3 -15.32,-72.3 11.35,-14.35 28.92,-23.56 48.64,-23.56zm-1.32 78.81c0,-0.11 0.17,-0.79 0.17,-0.9l-2.36 0c-0.06,0 -0.06,0.14 -0.08,0.24 -0.02,0.09 -0.04,0.19 -0.05,0.27 -0.1,0.5 -0.25,1.17 -0.33,1.65 -0.06,0.37 -0.15,0.74 -0.22,1.1 -0.07,0.37 -0.15,0.73 -0.22,1.1l-0.82 4.12c-0.03,0.14 -0.08,0.25 -0.01,0.25l2.47 0c0.06,0 0.05,-0.1 0.08,-0.23 0.09,-0.51 0.25,-1.27 0.35,-1.78l0.3 -1.52c0.21,-1.06 0.35,-2.32 1.39,-2.88 0.62,-0.33 1.71,-0.42 2.2,0.17 0.06,0.08 0.14,0.21 0.17,0.3 0.23,0.63 0.01,1.38 -0.12,2.03l-0.51 2.6c-0.02,0.12 -0.25,1.21 -0.25,1.31l2.54 0 0.2 -1.01c0.16,-0.78 0.67,-3.53 0.83,-4.01 0.1,-0.29 0.24,-0.6 0.4,-0.82 0.37,-0.49 0.95,-0.82 1.61,-0.82 0.48,0 0.78,0.01 1.16,0.33 0.08,0.07 0.2,0.26 0.25,0.37 0.18,0.46 0.1,0.94 0.01,1.4l-0.65 3.27c-0.04,0.22 -0.09,0.43 -0.13,0.64 -0.04,0.22 -0.08,0.45 -0.13,0.66l2.54 0c0.1,-0.44 0.2,-1.01 0.29,-1.47l0.58 -2.94c0.24,-1.2 0.43,-2.2 -0.3,-3.29 -0.05,-0.07 -0.1,-0.14 -0.16,-0.21 -0.04,-0.04 -0.05,-0.06 -0.09,-0.1 -0.16,-0.16 -0.34,-0.3 -0.53,-0.41 -0.84,-0.51 -1.95,-0.53 -2.89,-0.34 -0.3,0.06 -0.65,0.18 -0.89,0.3 -0.31,0.15 -0.81,0.46 -1.07,0.71 -0.08,0.08 -0.23,0.25 -0.3,0.3 -0.13,-0.24 -0.3,-0.47 -0.51,-0.64 -0.03,-0.02 -0.04,-0.04 -0.06,-0.06 -0.4,-0.38 -1.08,-0.61 -1.63,-0.68 -0.45,-0.06 -0.9,-0.04 -1.33,0.05 -0.51,0.11 -0.76,0.22 -1.19,0.44 -0.34,0.17 -0.56,0.42 -0.69,0.5zm12.24 4.01c0,0.9 0.18,1.64 0.62,2.31 0.03,0.05 0.06,0.09 0.09,0.14 0.03,0.05 0.07,0.09 0.11,0.14 0.69,0.88 1.79,1.37 2.95,1.37 0.58,0 1.12,-0.11 1.54,-0.28 0.15,-0.06 0.31,-0.13 0.46,-0.22 0.05,-0.03 0.09,-0.05 0.14,-0.09l0.4 -0.29c0.03,-0.03 0.04,-0.03 0.06,-0.05 0.03,-0.02 0.03,-0.03 0.06,-0.05 0,0.1 -0.15,0.71 -0.16,0.85l2.41 0 1.73 -8.74 -2.54 0 -0.23 1.16 -0.28 -0.35c-0.1,-0.11 -0.22,-0.22 -0.34,-0.3 -0.19,-0.14 -0.27,-0.18 -0.49,-0.29 -0.47,-0.24 -1.18,-0.34 -1.72,-0.34 -0.48,0 -1.15,0.1 -1.58,0.27 -0.35,0.14 -0.49,0.18 -0.84,0.39 -0.2,0.12 -0.36,0.23 -0.55,0.37 -0.03,0.02 -0.06,0.05 -0.09,0.07 -0.03,0.03 -0.06,0.04 -0.09,0.07 -0.11,0.1 -0.21,0.19 -0.32,0.3 -0.41,0.4 -0.75,0.99 -0.97,1.49 -0.03,0.07 -0.06,0.15 -0.08,0.22 -0.21,0.56 -0.32,1.25 -0.32,1.86zm4.55 1.86c0.5,0 0.94,-0.12 1.32,-0.36 0.38,-0.24 0.69,-0.58 0.91,-1.01 0.22,-0.43 0.33,-0.93 0.33,-1.5 0,-0.59 -0.18,-1.06 -0.53,-1.41 -0.35,-0.35 -0.84,-0.52 -1.47,-0.52 -0.49,0 -0.92,0.12 -1.31,0.37 -0.39,0.24 -0.69,0.58 -0.92,1.01 -0.22,0.43 -0.33,0.93 -0.33,1.5 0,0.59 0.18,1.06 0.53,1.41 0.35,0.35 0.84,0.52 1.47,0.52zm13.84 2.1c1.33,0 2.38,-0.34 3.36,-1.07 0.23,-0.17 0.47,-0.4 0.67,-0.61l0.14 -0.17c0.67,-0.77 1.12,-2 1.12,-3.02 0,-0.31 0.01,-0.58 -0.04,-0.88 -0.13,-0.8 -0.42,-1.45 -1,-2.03 -0.64,-0.64 -1.51,-1.03 -2.4,-1.15 -0.85,-0.12 -1.64,-0.09 -2.48,0.12 -0.25,0.06 -0.63,0.19 -0.85,0.31 -0.4,0.2 -0.83,0.44 -1.16,0.74 -0.66,0.59 -1.06,1.14 -1.39,1.96 -0.15,0.38 -0.23,0.75 -0.29,1.17 -0.01,0.09 -0.01,0.17 -0.02,0.26 -0.03,0.26 -0.02,0.83 0.03,1.1 0.07,0.47 0.2,0.91 0.44,1.31 0.3,0.5 0.64,0.87 1.13,1.2 0.21,0.14 0.53,0.31 0.77,0.4 0.56,0.21 1.22,0.35 1.99,0.35zm0.18 -2.08c0.5,0 0.94,-0.12 1.32,-0.36 0.38,-0.24 0.68,-0.58 0.9,-1.01 0.22,-0.43 0.32,-0.94 0.32,-1.51 0,-0.58 -0.17,-1.05 -0.52,-1.41 -0.35,-0.36 -0.83,-0.54 -1.46,-0.54 -0.5,0 -0.94,0.12 -1.32,0.36 -0.38,0.24 -0.69,0.58 -0.91,1.01 -0.22,0.43 -0.33,0.93 -0.33,1.51 0,0.59 0.17,1.07 0.52,1.42 0.35,0.35 0.84,0.53 1.48,0.53zm8.82 -5.78c0,-0.08 0.03,-0.18 0.04,-0.24 0.02,-0.12 0.14,-0.68 0.14,-0.76l-2.39 0c-0.04,0.08 -1.42,7.1 -1.48,7.43 -0.08,0.42 -0.17,0.83 -0.25,1.24 -0.02,0.1 -0.01,0.07 0.27,0.07l2.22 0c0.06,-0.01 0.05,-0.06 0.06,-0.13l0.28 -1.4c0.17,-0.84 0.33,-1.65 0.5,-2.48 0.12,-0.62 0.26,-1.13 0.62,-1.62 0.1,-0.13 0.24,-0.28 0.37,-0.38 0.49,-0.36 1.06,-0.55 1.69,-0.55 0.12,0 0.25,0 0.37,-0l0.34 0.03 0.12 -0.58c0.04,-0.21 0.08,-0.38 0.11,-0.59l0.23 -1.18c-0.21,0 -0.56,0.03 -0.77,0.04 -0.31,0.02 -0.83,0.14 -1.12,0.24 -0.47,0.16 -0.77,0.34 -1.13,0.64 -0.07,0.06 -0.14,0.16 -0.22,0.21zm-37.82 -3.31c0,0.15 -0.11,0.48 -0.11,0.62l0.92 0c0.13,-0.56 0.27,-1.37 0.39,-1.97l0.65 -3.3 -0.96 0 -0.17 0.87c-0.14,-0.16 -0.12,-0.26 -0.47,-0.53 -0.28,-0.21 -0.75,-0.38 -1.12,-0.39 -0.37,-0.01 -0.52,-0.04 -0.93,0.04 -1.16,0.23 -2,1.07 -2.28,2.23 -0.13,0.52 -0.13,1.24 0.08,1.76 0.18,0.44 0.53,0.84 0.95,1.05 0.86,0.43 1.99,0.37 2.78,-0.17l0.28 -0.22zm-1.63 -0.17c0.4,0 0.75,-0.1 1.06,-0.29 0.31,-0.19 0.56,-0.46 0.73,-0.79 0.18,-0.33 0.26,-0.72 0.26,-1.15 0,-0.46 -0.14,-0.83 -0.41,-1.09 -0.27,-0.26 -0.66,-0.39 -1.16,-0.39 -0.39,0 -0.74,0.09 -1.05,0.28 -0.31,0.19 -0.56,0.45 -0.74,0.79 -0.18,0.33 -0.27,0.72 -0.27,1.16 0,0.46 0.14,0.82 0.41,1.08 0.27,0.27 0.66,0.4 1.16,0.4zm13.6 -1.55c0,0.44 0.03,0.77 0.22,1.16 0.07,0.14 0.13,0.23 0.21,0.34 0.17,0.23 0.36,0.39 0.6,0.53 0.13,0.08 0.24,0.13 0.39,0.19 0.33,0.13 0.71,0.17 1.12,0.17 1.19,0 2.11,-0.62 2.62,-1.51 0.49,-0.85 0.6,-2.16 -0.03,-3.01 -0.42,-0.57 -1.15,-0.84 -1.88,-0.88l-0.33 0c-0.4,0.02 -0.78,0.11 -1.11,0.25 -0.56,0.25 -1.01,0.62 -1.32,1.13 -0.29,0.46 -0.48,1 -0.48,1.62zm2.54 1.55c0.4,0 0.75,-0.1 1.06,-0.29 0.31,-0.19 0.56,-0.46 0.73,-0.79 0.18,-0.33 0.26,-0.72 0.26,-1.15 0,-0.46 -0.14,-0.83 -0.41,-1.09 -0.27,-0.26 -0.66,-0.39 -1.16,-0.39 -0.39,0 -0.74,0.09 -1.05,0.28 -0.31,0.19 -0.56,0.45 -0.74,0.79 -0.18,0.33 -0.27,0.72 -0.27,1.16 0,0.46 0.14,0.82 0.41,1.08 0.27,0.27 0.66,0.4 1.16,0.4zm5.93 11.21l2.48 0c0.05,0 0.05,-0.06 0.06,-0.1 0.01,-0.05 0.01,-0.08 0.02,-0.13l1.58 -7.95c0.02,-0.12 0.1,-0.46 0.1,-0.56l-2.48 0c-0.05,0 -0.05,0.06 -0.05,0.1 -0.01,0.05 -0.02,0.08 -0.03,0.13l-0.82 4.11c-0.01,0.07 -0.87,4.27 -0.87,4.39zm-16.55 -15.08c0.01,-0.09 0.04,-0.21 0.06,-0.31 0.01,-0.07 0.05,-0.24 0.05,-0.32l-0.92 0 -0.52 2.63c-0.09,0.43 -0.17,0.87 -0.26,1.32 -0.08,0.41 -0.18,0.94 -0.27,1.32l0.96 0c0.03,-0.05 0.13,-0.6 0.15,-0.71 0.05,-0.25 0.09,-0.47 0.14,-0.72l0.29 -1.43c0.06,-0.26 0.12,-0.43 0.21,-0.64 0.02,-0.04 0.02,-0.03 0.04,-0.06l0.12 -0.21c0.4,-0.58 1.23,-0.82 1.91,-0.64 0.28,0.07 0.47,0.2 0.59,0.45 0.23,0.45 0.06,1.04 -0.03,1.51l-0.33 1.62c-0.03,0.14 -0.05,0.26 -0.08,0.4 -0.01,0.08 -0.03,0.13 -0.04,0.2 -0.01,0.07 -0.04,0.15 -0.04,0.22l0.96 0c0,-0.06 0.02,-0.12 0.03,-0.18l0.25 -1.25c0.1,-0.48 0.19,-0.95 0.29,-1.43 0.12,-0.57 0.37,-1.04 0.82,-1.33 0.09,-0.06 0.19,-0.11 0.29,-0.14 0.45,-0.17 1.15,-0.2 1.56,0.1 0.52,0.39 0.3,1.21 0.19,1.74l-0.45 2.28c-0.01,0.07 -0.04,0.15 -0.04,0.22l0.96 0 0.52 -2.66c0.12,-0.61 0.24,-1.09 -0.01,-1.7 -0.17,-0.43 -0.52,-0.71 -0.95,-0.86 -0.24,-0.08 -0.51,-0.12 -0.79,-0.12l-0.05 0c-0.45,0 -0.91,0.1 -1.24,0.27 -0.41,0.21 -0.38,0.22 -0.69,0.46 -0.11,0.09 -0.12,0.17 -0.2,0.19 -0.05,-0.22 -0.39,-0.55 -0.61,-0.67 -0.84,-0.45 -2.16,-0.26 -2.81,0.36 -0.03,0.03 -0.05,0.05 -0.08,0.08zm18.49 3.8c0,0.78 0.64,1.33 1.42,1.33 0.52,0 0.88,-0.09 1.21,-0.36 0.62,-0.51 0.75,-1.49 0.2,-2.03 -0.26,-0.26 -0.63,-0.43 -1.03,-0.43l-0.24 0c-0.86,0 -1.56,0.66 -1.56,1.49zm-2.84 -3.68l0.11 -0.55c0.01,-0.06 0.03,-0.13 0.04,-0.19l-0.93 0c0,0.09 -0.04,0.24 -0.06,0.33 -0.02,0.11 -0.04,0.22 -0.06,0.34l-0.39 1.97c-0.09,0.44 -0.17,0.88 -0.26,1.32l-0.26 1.32 0.96 0 0.3 -1.49c0.08,-0.38 0.22,-1.15 0.31,-1.48 0.06,-0.22 0.16,-0.45 0.27,-0.62 0.05,-0.08 0.12,-0.18 0.19,-0.25 0.23,-0.24 0.51,-0.41 0.86,-0.49 0.36,-0.09 0.48,-0.06 0.84,-0.06 0.01,-0.15 0.17,-0.82 0.17,-0.93 -0.46,0 -0.91,0.07 -1.23,0.2 -0.24,0.1 -0.37,0.17 -0.56,0.33l-0.19 0.18c-0.04,0.04 -0.04,0.07 -0.09,0.1zm-7.18 42.54c-22.39,-18.87 -36.22,-38.63 -38.07,-73.77 2.42,27.24 16.09,46.41 38.07,73.77zm45.51 -54.82c0,12.81 -8.34,23.66 -19.89,27.44 2.11,-1.03 4.14,-2.34 6.05,-3.92 11.71,-9.73 12.16,-27.46 5.23,-36.78 -6.93,-9.32 -22.2,-11.03 -33.51,-4.15 -1.26,0.77 -2.49,1.64 -3.66,2.61 -1.27,1.06 -2.43,2.19 -3.48,3.39 0.09,-0.81 0.13,-1.64 0.13,-2.48 0,-2.03 -0.26,-4.01 -0.75,-5.89 -2.61,-10.04 -11.48,-18.9 -22.59,-17.45 -22.49,2.93 -25.96,27.17 -18.97,44.11 9.12,22.09 30.37,44.4 44.12,51.18 -23.45,-8.73 -50.61,-34.66 -55.53,-62.54 -8.53,-48.26 52.09,-55.81 59.39,-20.41 22.88,-10.98 43.47,2.39 43.47,24.89z"/>
 </g>
</svg>
