<?xml version="1.0" encoding="UTF-8"?>
<!DOCTYPE svg PUBLIC "-//W3C//DTD SVG 1.1//EN" "http://www.w3.org/Graphics/SVG/1.1/DTD/svg11.dtd">
<!-- Creator: CorelDRAW 2020 (64 Bit) -->
<svg xmlns="http://www.w3.org/2000/svg" xml:space="preserve" width="43.4722mm" height="43.4722mm" version="1.1" style="shape-rendering:geometricPrecision; text-rendering:geometricPrecision; image-rendering:optimizeQuality; fill-rule:evenodd; clip-rule:evenodd"
viewBox="0 0 153.81 153.81"
 xmlns:xlink="http://www.w3.org/1999/xlink"
 xmlns:xodm="http://www.corel.com/coreldraw/odm/2003">
 <defs>
  <style type="text/css">
   <![CDATA[
    .fil1 {fill:white}
    .fil0 {fill:white}
   ]]>
  </style>
 </defs>
 <g id="Camada_x0020_1">
  <metadata id="CorelCorpID_0Corel-Layer"/>
  <g id="_2469445901856">
   <g>
    <path class="fil0" d="M143.87 76.7c0,14.27 -9.29,26.36 -22.15,30.56 2.35,-1.15 4.62,-2.61 6.74,-4.37 13.05,-10.84 13.55,-30.59 5.83,-40.97 -7.72,-10.38 -24.73,-12.29 -37.33,-4.62 -1.41,0.85 -2.77,1.82 -4.08,2.91 -1.42,1.18 -2.71,2.44 -3.88,3.78 0.1,-0.91 0.15,-1.83 0.15,-2.76 0,-2.27 -0.29,-4.47 -0.84,-6.56 -2.91,-11.18 -12.79,-21.05 -25.16,-19.44 -25.05,3.26 -28.92,30.27 -21.13,49.13 10.16,24.61 33.83,49.46 49.14,57.01 -26.12,-9.72 -56.37,-38.61 -61.86,-69.67 -9.5,-53.76 58.03,-62.16 66.16,-22.74 25.49,-12.23 48.42,2.66 48.42,27.73z"/>
    <path class="fil0" d="M93.17 137.77c-24.94,-21.02 -40.34,-43.03 -42.4,-82.18 2.7,30.34 17.93,51.7 42.4,82.18z"/>
    <path class="fil0" d="M25.59 40.98c-19.21,24.29 0.2,55.47 16.17,76.33 -18.75,-15.59 -44.65,-52.22 -16.17,-76.33z"/>
   </g>
   <path class="fil0" d="M76.91 0c42.47,0 76.91,34.43 76.91,76.91 0,42.47 -34.43,76.91 -76.91,76.91 -42.47,0 -76.91,-34.43 -76.91,-76.91 0,-42.47 34.43,-76.91 76.91,-76.91zm0 5.49c39.44,0 71.42,31.98 71.42,71.42 0,39.44 -31.98,71.42 -71.42,71.42 -39.44,0 -71.42,-31.98 -71.42,-71.42 0,-39.44 31.98,-71.42 71.42,-71.42z"/>
   <g>
    <path class="fil1" d="M76.76 97.94c0,-0.13 0.2,-0.9 0.2,-1.03l-2.69 0c-0.07,0 -0.07,0.15 -0.1,0.28 -0.02,0.11 -0.04,0.22 -0.06,0.31 -0.11,0.56 -0.28,1.34 -0.37,1.87 -0.07,0.42 -0.16,0.84 -0.25,1.25 -0.08,0.42 -0.17,0.83 -0.25,1.25l-0.93 4.69c-0.03,0.16 -0.09,0.28 -0.01,0.28l2.8 0c0.07,0 0.06,-0.12 0.09,-0.26 0.1,-0.58 0.28,-1.44 0.4,-2.03l0.34 -1.73c0.24,-1.2 0.39,-2.64 1.58,-3.27 0.7,-0.38 1.95,-0.48 2.5,0.2 0.07,0.09 0.15,0.23 0.19,0.34 0.26,0.72 0.01,1.56 -0.14,2.31l-0.58 2.95c-0.03,0.13 -0.29,1.38 -0.29,1.49l2.88 0 0.22 -1.14c0.18,-0.89 0.76,-4.01 0.94,-4.56 0.11,-0.33 0.27,-0.68 0.46,-0.93 0.42,-0.56 1.08,-0.94 1.83,-0.94 0.54,0 0.89,0.01 1.32,0.37 0.09,0.08 0.23,0.29 0.28,0.42 0.21,0.52 0.12,1.07 0.01,1.59l-0.74 3.71c-0.05,0.25 -0.1,0.49 -0.15,0.73 -0.05,0.25 -0.09,0.51 -0.15,0.75l2.88 0c0.12,-0.5 0.23,-1.14 0.33,-1.67l0.66 -3.34c0.27,-1.36 0.48,-2.5 -0.34,-3.73 -0.06,-0.08 -0.12,-0.16 -0.19,-0.24 -0.04,-0.04 -0.05,-0.07 -0.1,-0.11 -0.18,-0.18 -0.39,-0.34 -0.61,-0.47 -0.96,-0.57 -2.22,-0.6 -3.28,-0.38 -0.34,0.07 -0.73,0.2 -1.01,0.34 -0.35,0.17 -0.92,0.52 -1.21,0.81 -0.09,0.09 -0.26,0.28 -0.35,0.34 -0.14,-0.27 -0.35,-0.53 -0.57,-0.73 -0.03,-0.03 -0.04,-0.05 -0.07,-0.07 -0.45,-0.44 -1.22,-0.69 -1.85,-0.77 -0.51,-0.06 -1.02,-0.04 -1.51,0.06 -0.58,0.12 -0.87,0.25 -1.35,0.5 -0.38,0.2 -0.64,0.47 -0.78,0.57z"/>
    <path class="fil1" d="M90.67 102.5c0,1.02 0.2,1.86 0.71,2.63 0.04,0.06 0.07,0.1 0.1,0.16 0.04,0.06 0.08,0.1 0.12,0.16 0.78,1 2.04,1.55 3.35,1.55 0.66,0 1.28,-0.12 1.75,-0.31 0.17,-0.07 0.36,-0.15 0.52,-0.25 0.06,-0.04 0.1,-0.06 0.16,-0.1l0.45 -0.33c0.03,-0.03 0.04,-0.03 0.07,-0.06 0.03,-0.03 0.04,-0.04 0.07,-0.06 0,0.11 -0.17,0.81 -0.18,0.96l2.74 0 1.97 -9.93 -2.88 0 -0.26 1.32 -0.31 -0.4c-0.11,-0.12 -0.25,-0.24 -0.39,-0.35 -0.21,-0.16 -0.31,-0.2 -0.55,-0.33 -0.53,-0.27 -1.34,-0.39 -1.95,-0.39 -0.55,0 -1.31,0.11 -1.8,0.3 -0.4,0.15 -0.56,0.21 -0.95,0.45 -0.23,0.14 -0.41,0.26 -0.62,0.42 -0.03,0.03 -0.07,0.05 -0.1,0.08 -0.04,0.03 -0.06,0.05 -0.1,0.08 -0.13,0.11 -0.24,0.22 -0.36,0.34 -0.46,0.46 -0.85,1.12 -1.1,1.7 -0.03,0.08 -0.07,0.17 -0.1,0.25 -0.24,0.63 -0.36,1.42 -0.36,2.11zm5.17 2.11c0.57,0 1.07,-0.14 1.5,-0.41 0.44,-0.28 0.78,-0.66 1.03,-1.14 0.25,-0.49 0.38,-1.05 0.38,-1.7 0,-0.68 -0.2,-1.21 -0.6,-1.6 -0.4,-0.39 -0.96,-0.59 -1.67,-0.59 -0.55,0 -1.05,0.14 -1.49,0.41 -0.44,0.28 -0.79,0.66 -1.04,1.14 -0.25,0.49 -0.38,1.05 -0.38,1.7 0,0.68 0.2,1.21 0.6,1.6 0.4,0.39 0.96,0.59 1.67,0.59z"/>
    <path class="fil1" d="M111.56 106.99c1.52,0 2.7,-0.39 3.82,-1.22 0.26,-0.2 0.54,-0.46 0.76,-0.69l0.16 -0.2c0.76,-0.87 1.27,-2.27 1.27,-3.43 0,-0.35 0.01,-0.66 -0.04,-1 -0.15,-0.91 -0.47,-1.65 -1.13,-2.3 -0.73,-0.73 -1.72,-1.17 -2.73,-1.31 -0.97,-0.13 -1.87,-0.1 -2.82,0.14 -0.29,0.07 -0.72,0.22 -0.97,0.35 -0.46,0.23 -0.94,0.5 -1.32,0.84 -0.75,0.67 -1.21,1.29 -1.58,2.23 -0.18,0.43 -0.26,0.85 -0.33,1.33 -0.01,0.11 -0.01,0.19 -0.03,0.3 -0.04,0.29 -0.02,0.94 0.03,1.25 0.08,0.54 0.23,1.03 0.5,1.49 0.34,0.57 0.73,0.99 1.29,1.37 0.24,0.16 0.61,0.35 0.88,0.46 0.64,0.24 1.38,0.4 2.26,0.4zm0.21 -2.37c0.57,0 1.07,-0.14 1.5,-0.41 0.44,-0.28 0.78,-0.66 1.02,-1.15 0.25,-0.49 0.37,-1.06 0.37,-1.71 0,-0.66 -0.2,-1.2 -0.59,-1.6 -0.39,-0.41 -0.95,-0.61 -1.66,-0.61 -0.57,0 -1.07,0.14 -1.5,0.41 -0.44,0.28 -0.78,0.66 -1.03,1.15 -0.25,0.49 -0.38,1.06 -0.38,1.71 0,0.68 0.2,1.21 0.59,1.61 0.39,0.4 0.95,0.6 1.68,0.6z"/>
    <path class="fil1" d="M121.79 98.05c0,-0.09 0.03,-0.2 0.05,-0.28 0.03,-0.14 0.16,-0.77 0.16,-0.86l-2.72 0c-0.04,0.09 -1.61,8.07 -1.69,8.44 -0.1,0.48 -0.19,0.94 -0.28,1.41 -0.02,0.11 -0.01,0.08 0.31,0.08l2.52 0c0.07,-0.01 0.05,-0.07 0.07,-0.15l0.32 -1.59c0.19,-0.95 0.37,-1.87 0.56,-2.82 0.14,-0.7 0.29,-1.29 0.7,-1.84 0.11,-0.15 0.27,-0.32 0.42,-0.43 0.56,-0.41 1.2,-0.62 1.92,-0.62 0.14,0 0.28,0 0.42,-0l0.39 0.03 0.14 -0.66c0.04,-0.24 0.09,-0.44 0.13,-0.67l0.26 -1.34c-0.24,0 -0.64,0.03 -0.88,0.05 -0.35,0.02 -0.94,0.16 -1.27,0.27 -0.54,0.18 -0.87,0.38 -1.28,0.72 -0.08,0.07 -0.16,0.18 -0.25,0.24z"/>
    <path class="fil1" d="M78.81 94.29c0,0.17 -0.13,0.54 -0.13,0.7l1.04 0c0.15,-0.64 0.31,-1.55 0.45,-2.24l0.74 -3.75 -1.09 0 -0.2 0.99c-0.16,-0.19 -0.14,-0.3 -0.54,-0.6 -0.32,-0.24 -0.85,-0.43 -1.27,-0.44 -0.42,-0.01 -0.59,-0.04 -1.06,0.05 -1.31,0.26 -2.27,1.21 -2.59,2.54 -0.14,0.59 -0.15,1.41 0.09,2 0.2,0.5 0.6,0.95 1.08,1.2 0.97,0.49 2.26,0.42 3.16,-0.19l0.32 -0.25zm-1.86 -0.19c0.45,0 0.86,-0.11 1.21,-0.33 0.35,-0.22 0.63,-0.52 0.83,-0.9 0.2,-0.38 0.3,-0.82 0.3,-1.31 0,-0.53 -0.15,-0.94 -0.46,-1.24 -0.31,-0.3 -0.75,-0.45 -1.32,-0.45 -0.44,0 -0.84,0.11 -1.2,0.32 -0.35,0.22 -0.63,0.51 -0.84,0.89 -0.2,0.38 -0.3,0.82 -0.3,1.32 0,0.52 0.15,0.93 0.46,1.23 0.31,0.3 0.75,0.45 1.32,0.45z"/>
    <path class="fil1" d="M92.41 92.33c0,0.51 0.03,0.87 0.25,1.31 0.08,0.16 0.14,0.26 0.24,0.39 0.19,0.26 0.41,0.44 0.68,0.61 0.15,0.09 0.27,0.15 0.44,0.21 0.38,0.15 0.8,0.19 1.27,0.19 1.35,0 2.4,-0.71 2.98,-1.71 0.56,-0.96 0.69,-2.46 -0.03,-3.42 -0.48,-0.64 -1.3,-0.95 -2.14,-1l-0.38 0c-0.45,0.02 -0.89,0.12 -1.26,0.29 -0.64,0.28 -1.14,0.7 -1.51,1.28 -0.33,0.52 -0.54,1.14 -0.54,1.84zm2.88 1.77c0.45,0 0.86,-0.11 1.21,-0.33 0.35,-0.22 0.63,-0.52 0.83,-0.9 0.2,-0.38 0.3,-0.82 0.3,-1.31 0,-0.53 -0.15,-0.94 -0.46,-1.24 -0.31,-0.3 -0.75,-0.45 -1.32,-0.45 -0.44,0 -0.84,0.11 -1.2,0.32 -0.35,0.22 -0.63,0.51 -0.84,0.89 -0.2,0.38 -0.3,0.82 -0.3,1.32 0,0.52 0.15,0.93 0.46,1.23 0.31,0.3 0.75,0.45 1.32,0.45z"/>
    <path class="fil1" d="M102.04 106.85l2.82 0c0.06,0 0.06,-0.06 0.06,-0.12 0.01,-0.06 0.02,-0.09 0.03,-0.15l1.8 -9.03c0.03,-0.14 0.12,-0.52 0.12,-0.63l-2.82 0c-0.06,0 -0.05,0.06 -0.06,0.12 -0.01,0.06 -0.02,0.09 -0.03,0.15l-0.93 4.67c-0.02,0.08 -0.98,4.85 -0.98,4.99z"/>
    <path class="fil1" d="M83.23 89.71c0.01,-0.1 0.05,-0.24 0.07,-0.35 0.02,-0.08 0.06,-0.27 0.06,-0.36l-1.04 0 -0.59 2.99c-0.1,0.49 -0.19,0.99 -0.3,1.5 -0.09,0.46 -0.2,1.07 -0.3,1.51l1.09 0c0.03,-0.06 0.15,-0.69 0.17,-0.81 0.06,-0.28 0.11,-0.53 0.16,-0.81l0.33 -1.63c0.06,-0.29 0.14,-0.49 0.24,-0.73 0.02,-0.04 0.02,-0.04 0.04,-0.07l0.14 -0.23c0.46,-0.66 1.4,-0.93 2.17,-0.73 0.31,0.08 0.53,0.23 0.67,0.52 0.26,0.51 0.07,1.19 -0.04,1.72l-0.37 1.84c-0.03,0.16 -0.06,0.3 -0.1,0.46 -0.02,0.09 -0.03,0.14 -0.05,0.23 -0.02,0.08 -0.04,0.17 -0.04,0.25l1.09 0c0,-0.07 0.02,-0.14 0.04,-0.21l0.29 -1.42c0.11,-0.55 0.22,-1.08 0.33,-1.63 0.13,-0.65 0.42,-1.18 0.93,-1.51 0.1,-0.06 0.21,-0.12 0.32,-0.16 0.51,-0.2 1.31,-0.23 1.77,0.11 0.59,0.44 0.34,1.37 0.22,1.97l-0.52 2.6c-0.02,0.08 -0.04,0.17 -0.04,0.25l1.09 0 0.6 -3.02c0.14,-0.69 0.27,-1.24 -0.01,-1.93 -0.2,-0.48 -0.59,-0.81 -1.08,-0.97 -0.27,-0.09 -0.58,-0.13 -0.9,-0.14l-0.06 0c-0.51,0 -1.03,0.11 -1.41,0.3 -0.47,0.24 -0.43,0.25 -0.78,0.52 -0.12,0.1 -0.13,0.19 -0.23,0.21 -0.06,-0.25 -0.44,-0.63 -0.69,-0.76 -0.96,-0.51 -2.46,-0.3 -3.19,0.41 -0.04,0.04 -0.05,0.06 -0.09,0.09z"/>
    <path class="fil1" d="M104.23 94.03c0,0.88 0.73,1.51 1.61,1.51 0.59,0 1,-0.1 1.38,-0.41 0.71,-0.57 0.85,-1.69 0.23,-2.3 -0.3,-0.29 -0.72,-0.49 -1.17,-0.49l-0.28 0c-0.98,0 -1.78,0.75 -1.78,1.69z"/>
    <path class="fil1" d="M101.01 89.84l0.12 -0.63c0.01,-0.07 0.04,-0.15 0.04,-0.22l-1.06 0c0,0.1 -0.05,0.27 -0.07,0.37 -0.02,0.12 -0.05,0.25 -0.07,0.38l-0.45 2.24c-0.1,0.5 -0.2,0.99 -0.3,1.5l-0.29 1.5 1.09 0 0.34 -1.7c0.09,-0.43 0.25,-1.31 0.35,-1.68 0.07,-0.25 0.18,-0.51 0.31,-0.7 0.06,-0.09 0.14,-0.21 0.22,-0.29 0.26,-0.27 0.58,-0.46 0.97,-0.56 0.41,-0.1 0.54,-0.07 0.95,-0.07 0.01,-0.17 0.2,-0.93 0.2,-1.06 -0.52,0 -1.04,0.08 -1.4,0.23 -0.28,0.11 -0.43,0.19 -0.64,0.37l-0.22 0.2c-0.04,0.05 -0.05,0.08 -0.1,0.11z"/>
   </g>
  </g>
 </g>
</svg>
